Coordinates
version=1
nRows=7
nColumns=40
inDegrees=yes

Units are S.I. units (second, meters, Newtons, ...)
If the header above contains a line with 'inDegrees', this indicates whether rotational values are in degrees (yes) or radians (no).

endheader
time	pelvis_tilt	pelvis_list	pelvis_rotation	pelvis_tx	pelvis_ty	pelvis_tz	hip_flexion_r	hip_adduction_r	hip_rotation_r	knee_angle_r	knee_angle_r_beta	ankle_angle_r	subtalar_angle_r	mtp_angle_r	hip_flexion_l	hip_adduction_l	hip_rotation_l	knee_angle_l	knee_angle_l_beta	ankle_angle_l	subtalar_angle_l	mtp_angle_l	lumbar_extension	lumbar_bending	lumbar_rotation	arm_flex_r	arm_add_r	arm_rot_r	elbow_flex_r	pro_sup_r	wrist_flex_r	wrist_dev_r	arm_flex_l	arm_add_l	arm_rot_l	elbow_flex_l	pro_sup_l	wrist_flex_l	wrist_dev_l
      2.70000000	     -1.90836734	      3.11590799	      1.75432234	     -0.32817788	      1.00252028	     -0.72139346	      9.31276684	      1.42593423	     -7.90865370	     14.31685751	      0.24987630	     -9.49941119	      0.00000000	      0.00000000	     34.12626375	     -3.35277940	     -4.86853084	     46.08817208	      0.80439035	     -7.73578975	      0.00000000	      0.00000000	     -4.95829139	     -0.54154621	     -1.38000401	     89.74119931	     -9.73722778	     42.60943190	     29.99954863	     84.31683187	      0.00000000	      0.00000000	     89.44134801	    -14.57846941	     52.17002558	     32.04849469	     85.21140149	      0.00000000	      0.00000000
      2.70500000	     -1.90939871	      3.14898832	      1.72459279	     -0.32850054	      1.00247721	     -0.72125839	      9.36402456	      1.40416587	     -7.81609905	     14.36994370	      0.25080283	     -9.51191554	      0.00000000	      0.00000000	     34.29346111	     -3.41572191	     -5.39137308	     45.75935352	      0.79865138	     -7.91973686	      0.00000000	      0.00000000	     -5.01116859	     -0.58091285	     -1.37557733	     89.74098080	     -9.68553540	     42.54686185	     29.96489586	     84.41648882	      0.00000000	      0.00000000	     89.44040604	    -14.54129732	     51.95712785	     31.96949269	     85.26799563	      0.00000000	      0.00000000
      2.71000000	     -1.99607431	      3.22933167	      1.76768242	     -0.32893834	      1.00230298	     -0.72135021	      9.64167185	      1.28506970	     -7.89520985	     14.81100927	      0.25850088	     -9.58733107	      0.00000000	      0.00000000	     34.62531383	     -3.26028730	     -5.05880619	     45.86874880	      0.80056069	     -7.97806370	      0.00000000	      0.00000000	     -4.97505105	     -0.65659821	     -1.40847235	     89.74496235	     -9.68681122	     42.64477740	     29.91458273	     84.03107323	      0.00000000	      0.00000000	     89.46099164	    -14.62063586	     52.30023012	     32.15059490	     85.06822036	      0.00000000	      0.00000000
      2.71500000	     -2.04607424	      3.22094385	      1.74345190	     -0.32927385	      1.00219572	     -0.72124071	      9.66445918	      1.31932797	     -7.73209411	     14.57537124	      0.25438822	     -9.42745555	      0.00000000	      0.00000000	     34.86750067	     -3.28175850	     -5.12541322	     45.69343143	      0.79750082	     -8.13537026	      0.00000000	      0.00000000	     -4.98097886	     -0.65576206	     -1.34376725	     89.74365959	     -9.78101296	     42.95030564	     30.04682429	     82.47571193	      0.00000000	      0.00000000	     89.47511558	    -14.50708798	     52.33999778	     32.07798735	     83.46726697	      0.00000000	      0.00000000
      2.72000000	     -1.99600233	      3.30446532	      1.80745033	     -0.32960775	      1.00216861	     -0.72133036	      9.74271791	      1.21119560	     -7.78323586	     14.91068810	      0.26024060	     -9.54409426	      0.00000000	      0.00000000	     34.98128136	     -3.14224180	     -5.10892003	     45.52049846	      0.79448258	     -8.24046640	      0.00000000	      0.00000000	     -5.10107348	     -0.74093437	     -1.38496353	     89.74164347	     -9.81339467	     42.50607471	     30.01720669	     84.50233241	      0.00000000	      0.00000000	     89.45234790	    -14.40145611	     51.68988930	     32.05967719	     85.23493822	      0.00000000	      0.00000000
      2.72500000	     -2.02965915	      3.35920657	      1.84069978	     -0.32996547	      1.00204336	     -0.72131177	      9.85231140	      1.15139704	     -7.82946881	     15.02032581	      0.26215414	     -9.54147092	      0.00000000	      0.00000000	     35.21049102	     -3.10447979	     -5.22691343	     45.37465876	      0.79193719	     -8.46445509	      0.00000000	      0.00000000	     -5.11887953	     -0.78691602	     -1.48683878	     89.74410229	     -9.65733813	     42.39407543	     29.91294138	     84.37921847	      0.00000000	      0.00000000	     89.45939075	    -14.48350564	     51.61480446	     32.04288995	     85.29792156	      0.00000000	      0.00000000
      2.73000000	     -2.07977445	      3.30073389	      1.86545935	     -0.33025188	      1.00178887	     -0.72128444	      9.95066624	      1.21932030	     -7.79778536	     15.07749167	      0.26315187	     -9.47158893	      0.00000000	      0.00000000	     35.51357712	     -3.12768718	     -5.16064689	     45.36355218	      0.79174335	     -8.40198074	      0.00000000	      0.00000000	     -5.08689849	     -0.73554315	     -1.47023025	     89.75156188	     -9.75936169	     43.07064044	     29.96367887	     82.13235530	      0.00000000	      0.00000000	     89.48634773	    -14.43449462	     52.13119539	     32.03362954	     83.10754234	      0.00000000	      0.00000000
